<?xml version="1.0" encoding="UTF-8"?>
<svg xmlns="http://www.w3.org/2000/svg" xmlns:xlink="http://www.w3.org/1999/xlink" width="64px" height="58px" viewBox="0 0 63 58" version="1.1">
<g id="surface1">
<path style=" stroke:none;fill-rule:nonzero;fill:rgb(0%,0%,0%);fill-opacity:1;" d="M 42.023438 4.144531 C 41.683594 4.320312 40.332031 5.726562 39.898438 6.34375 C 39.167969 7.378906 38.628906 8.621094 38.390625 9.792969 C 38.136719 11.078125 38.121094 12.21875 38.335938 13.875 C 38.566406 15.660156 38.65625 17.875 38.546875 18.929688 C 38.527344 19.144531 38.527344 19.3125 38.546875 19.3125 C 38.628906 19.3125 39.441406 18.4375 39.695312 18.085938 C 40.382812 17.132812 40.792969 15.820312 40.914062 14.1875 C 40.953125 13.695312 40.941406 13.164062 40.886719 12.234375 C 40.757812 10.363281 40.84375 8.707031 41.125 7.363281 C 41.347656 6.265625 41.894531 4.785156 42.292969 4.175781 C 42.421875 3.980469 42.335938 3.976562 42.023438 4.144531 Z M 42.023438 4.144531 "/>
<path style=" stroke:none;fill-rule:nonzero;fill:rgb(0%,0%,0%);fill-opacity:1;" d="M 29.757812 8.15625 C 29.21875 8.46875 27.777344 10.230469 26.863281 11.703125 C 25.804688 13.402344 24.996094 15.347656 24.625 17.078125 C 23.636719 21.636719 25.242188 25.996094 29.03125 29.039062 C 29.296875 29.25 29.539062 29.429688 29.566406 29.441406 C 29.59375 29.453125 29.566406 29.339844 29.511719 29.1875 C 29.050781 27.957031 28.824219 25.4375 29.039062 23.890625 C 29.207031 22.640625 29.734375 20.179688 29.964844 19.570312 C 30.242188 18.828125 30.453125 19.066406 30.894531 20.605469 C 31.445312 22.546875 31.59375 23.839844 31.488281 25.527344 C 31.394531 26.921875 31.179688 28.269531 30.925781 29.097656 C 30.863281 29.292969 30.835938 29.453125 30.859375 29.453125 C 30.882812 29.453125 31.140625 29.300781 31.425781 29.109375 C 32.457031 28.421875 33.699219 27.226562 34.417969 26.21875 C 34.84375 25.617188 35.492188 24.34375 35.742188 23.613281 C 36.535156 21.285156 36.480469 18.449219 35.582031 15.886719 C 34.910156 13.984375 33.6875 11.972656 31.984375 9.96875 C 31.125 8.960938 30.210938 7.984375 30.128906 7.984375 C 30.082031 7.984375 29.914062 8.058594 29.757812 8.15625 Z M 29.757812 8.15625 "/>
<path style=" stroke:none;fill-rule:nonzero;fill:rgb(0%,0%,0%);fill-opacity:1;" d="M 42.589844 15.09375 C 42.535156 15.433594 42.464844 16.175781 42.433594 16.738281 C 42.347656 18.449219 42.269531 19.367188 42.152344 20 C 41.972656 21.007812 41.644531 21.929688 41.257812 22.53125 L 41.082031 22.796875 L 41.285156 22.570312 C 41.628906 22.179688 42.101562 21.425781 42.304688 20.953125 C 42.730469 19.9375 42.867188 19.019531 42.804688 17.613281 C 42.78125 17.070312 42.742188 16.136719 42.726562 15.546875 L 42.691406 14.472656 Z M 42.589844 15.09375 "/>
<path style=" stroke:none;fill-rule:nonzero;fill:rgb(0%,0%,0%);fill-opacity:1;" d="M 19.691406 15.996094 C 19.332031 16.113281 18.988281 16.335938 18.734375 16.613281 C 17.738281 17.699219 18.09375 19.40625 19.4375 20.039062 C 19.710938 20.167969 19.832031 20.191406 20.292969 20.191406 C 20.757812 20.191406 20.871094 20.167969 21.167969 20.035156 C 21.601562 19.828125 22.035156 19.394531 22.242188 18.945312 C 22.378906 18.652344 22.398438 18.539062 22.398438 18.066406 C 22.398438 17.59375 22.382812 17.484375 22.238281 17.179688 C 22.039062 16.742188 21.597656 16.308594 21.152344 16.101562 C 20.757812 15.921875 20.066406 15.871094 19.691406 15.996094 Z M 19.691406 15.996094 "/>
<path style=" stroke:none;fill-rule:nonzero;fill:rgb(0%,0%,0%);fill-opacity:1;" d="M 11.960938 20.253906 C 11.898438 20.363281 11.628906 21.558594 11.5 22.300781 C 10.988281 25.257812 11.246094 27.136719 12.449219 29.199219 C 13.367188 30.773438 14.574219 31.882812 16.273438 32.710938 C 17.578125 33.351562 18.882812 33.691406 20.253906 33.742188 C 20.769531 33.757812 21.136719 33.753906 21.136719 33.722656 C 21.136719 33.695312 21.074219 33.582031 21 33.46875 C 20.402344 32.585938 19.757812 31.394531 19.25 30.25 C 19.015625 29.714844 18.539062 28.6875 18.183594 27.976562 C 17.828125 27.253906 17.539062 26.632812 17.539062 26.585938 C 17.539062 26.40625 17.738281 26.554688 18.144531 27.015625 C 20.105469 29.265625 21.207031 30.40625 22.699219 31.734375 C 23.28125 32.257812 23.390625 32.335938 23.421875 32.246094 C 23.511719 32.035156 23.457031 30.613281 23.332031 29.765625 C 22.886719 26.699219 21.785156 24.34375 20.152344 22.9375 C 18.785156 21.773438 17.195312 20.980469 15.542969 20.644531 C 14.445312 20.417969 12.019531 20.160156 11.960938 20.253906 Z M 11.960938 20.253906 "/>
<path style=" stroke:none;fill-rule:nonzero;fill:rgb(0%,0%,0%);fill-opacity:1;" d="M 44.5 23.703125 C 42.242188 24.113281 40.949219 24.648438 39.839844 25.640625 C 38.351562 26.972656 37.488281 28.714844 37.214844 30.925781 C 37.144531 31.492188 37.132812 32.851562 37.199219 32.851562 C 37.226562 32.851562 37.300781 32.75 37.367188 32.628906 C 37.988281 31.519531 39.960938 29.695312 41.65625 28.671875 C 42.355469 28.246094 42.355469 28.246094 42.21875 28.59375 C 41.492188 30.449219 40.347656 31.808594 38.449219 33.074219 L 37.800781 33.503906 L 38.167969 33.535156 C 38.367188 33.558594 38.9375 33.578125 39.4375 33.582031 C 42.777344 33.605469 44.996094 32.710938 46.253906 30.824219 C 47.125 29.519531 47.804688 27.4375 48.167969 24.949219 C 48.3125 23.96875 48.3125 23.863281 48.183594 23.824219 C 48.125 23.804688 47.726562 23.738281 47.300781 23.675781 C 46.265625 23.527344 45.417969 23.539062 44.5 23.703125 Z M 44.5 23.703125 "/>
<path style=" stroke:none;fill-rule:nonzero;fill:rgb(0%,0%,0%);fill-opacity:1;" d="M 34.765625 28.675781 C 34.449219 28.851562 34.261719 29.242188 34.308594 29.59375 C 34.429688 30.355469 35.382812 30.636719 35.894531 30.066406 C 36.292969 29.628906 36.148438 28.898438 35.621094 28.660156 C 35.3125 28.511719 35.042969 28.519531 34.765625 28.675781 Z M 34.765625 28.675781 "/>
<path style=" stroke:none;fill-rule:nonzero;fill:rgb(0%,0%,0%);fill-opacity:1;" d="M 25.648438 29.570312 C 25.324219 29.695312 24.960938 30.03125 24.8125 30.347656 C 24.753906 30.46875 24.699219 30.726562 24.6875 30.960938 C 24.660156 31.464844 24.804688 31.84375 25.152344 32.167969 C 25.484375 32.472656 25.753906 32.578125 26.195312 32.589844 C 27.046875 32.601562 27.695312 32 27.757812 31.148438 C 27.789062 30.648438 27.671875 30.320312 27.328125 29.953125 C 26.894531 29.480469 26.253906 29.339844 25.648438 29.570312 Z M 25.648438 29.570312 "/>
<path style=" stroke:none;fill-rule:nonzero;fill:rgb(0%,0%,0%);fill-opacity:1;" d="M 30.820312 31.570312 C 30.488281 31.679688 30.261719 31.855469 30.089844 32.160156 C 29.960938 32.382812 29.933594 32.496094 29.933594 32.796875 C 29.9375 33.566406 30.433594 34.0625 31.195312 34.070312 C 31.820312 34.070312 32.28125 33.703125 32.4375 33.066406 C 32.539062 32.636719 32.425781 32.273438 32.074219 31.917969 C 31.679688 31.519531 31.308594 31.417969 30.820312 31.570312 Z M 30.820312 31.570312 "/>
<path style=" stroke:none;fill-rule:nonzero;fill:rgb(0%,0%,0%);fill-opacity:1;" d="M 10.667969 35.78125 C 10.714844 37.242188 11.164062 38.554688 12.066406 39.839844 C 12.511719 40.46875 13.78125 41.738281 14.511719 42.289062 C 17.457031 44.492188 21.488281 45.914062 26.222656 46.417969 C 27.457031 46.546875 31.445312 46.636719 32.894531 46.5625 C 36.835938 46.367188 39.527344 45.488281 42.550781 43.425781 C 43.410156 42.835938 44.851562 41.488281 45.675781 40.5 C 46.25 39.8125 46.933594 38.832031 47.429688 37.996094 L 47.851562 37.273438 L 48.53125 37.046875 C 49.800781 36.628906 50.695312 36.476562 51.992188 36.476562 C 54.253906 36.476562 56.355469 36.890625 57.929688 37.644531 C 58.210938 37.773438 58.726562 38.078125 59.078125 38.3125 C 59.75 38.769531 60.015625 38.878906 60.230469 38.796875 C 60.53125 38.6875 60.652344 38.175781 60.539062 37.507812 C 60.363281 36.460938 59.628906 35.574219 58.675781 35.28125 C 58.347656 35.171875 57.734375 35.171875 34.492188 35.171875 L 10.644531 35.171875 Z M 10.667969 35.78125 "/>
<path style=" stroke:none;fill-rule:nonzero;fill:rgb(0%,0%,0%);fill-opacity:1;" d="M 44.992188 43.804688 C 44.738281 44.0625 44.726562 44.34375 44.96875 44.679688 C 45.171875 44.960938 45.289062 45.03125 45.574219 45.03125 C 45.828125 45.03125 46.046875 44.882812 46.175781 44.632812 C 46.289062 44.417969 46.28125 44.367188 46.144531 44.332031 C 46.0625 44.308594 46.019531 44.339844 45.984375 44.421875 C 45.882812 44.683594 45.621094 44.824219 45.421875 44.722656 C 45.300781 44.65625 45.304688 44.644531 45.675781 44.320312 L 46.050781 43.988281 L 45.839844 43.800781 C 45.535156 43.539062 45.253906 43.539062 44.992188 43.804688 Z M 45.621094 43.964844 C 45.660156 44.027344 45.511719 44.203125 45.289062 44.359375 L 45.136719 44.46875 L 45.085938 44.339844 C 45.023438 44.179688 45.140625 43.914062 45.289062 43.886719 C 45.417969 43.855469 45.582031 43.898438 45.621094 43.964844 Z M 45.621094 43.964844 "/>
<path style=" stroke:none;fill-rule:nonzero;fill:rgb(0%,0%,0%);fill-opacity:1;" d="M 44.027344 44.578125 C 43.929688 44.636719 43.832031 44.75 43.808594 44.832031 C 43.78125 44.949219 43.757812 44.960938 43.691406 44.910156 C 43.628906 44.855469 43.597656 44.859375 43.523438 44.933594 C 43.4375 45.019531 43.460938 45.070312 43.804688 45.59375 C 44.011719 45.90625 44.203125 46.164062 44.226562 46.164062 C 44.253906 46.164062 44.316406 46.128906 44.367188 46.089844 C 44.457031 46.027344 44.433594 45.980469 44.179688 45.59375 C 44.027344 45.363281 43.898438 45.132812 43.898438 45.082031 C 43.898438 44.96875 44.074219 44.804688 44.199219 44.804688 C 44.25 44.804688 44.292969 44.769531 44.292969 44.722656 C 44.292969 44.679688 44.308594 44.605469 44.328125 44.554688 C 44.371094 44.429688 44.25 44.441406 44.027344 44.578125 Z M 44.027344 44.578125 "/>
<path style=" stroke:none;fill-rule:nonzero;fill:rgb(0%,0%,0%);fill-opacity:1;" d="M 42.535156 44.832031 C 42.449219 44.894531 42.4375 44.925781 42.496094 45.023438 C 42.546875 45.121094 42.578125 45.132812 42.664062 45.085938 C 42.792969 45.019531 42.808594 44.898438 42.703125 44.8125 C 42.65625 44.773438 42.605469 44.78125 42.535156 44.832031 Z M 42.535156 44.832031 "/>
<path style=" stroke:none;fill-rule:nonzero;fill:rgb(0%,0%,0%);fill-opacity:1;" d="M 42.808594 45.339844 C 42.753906 45.386719 42.71875 45.4375 42.726562 45.464844 C 42.855469 45.761719 43.359375 46.617188 43.410156 46.617188 C 43.449219 46.617188 43.511719 46.59375 43.558594 46.5625 C 43.617188 46.523438 43.566406 46.390625 43.308594 45.914062 C 43.136719 45.585938 42.976562 45.300781 42.957031 45.289062 C 42.933594 45.277344 42.867188 45.300781 42.808594 45.339844 Z M 42.808594 45.339844 "/>
<path style=" stroke:none;fill-rule:nonzero;fill:rgb(0%,0%,0%);fill-opacity:1;" d="M 41.589844 45.996094 C 41.5 46.09375 41.425781 46.144531 41.425781 46.109375 C 41.425781 46.027344 41.359375 46.03125 41.242188 46.121094 C 41.152344 46.183594 41.171875 46.265625 41.542969 47.109375 C 41.925781 47.984375 41.949219 48.027344 42.066406 47.964844 C 42.128906 47.929688 42.191406 47.894531 42.203125 47.890625 C 42.207031 47.882812 42.152344 47.742188 42.074219 47.574219 L 41.933594 47.265625 L 42.152344 47.25 C 42.644531 47.210938 42.792969 46.808594 42.515625 46.257812 C 42.332031 45.894531 42.246094 45.828125 41.972656 45.820312 C 41.796875 45.820312 41.71875 45.863281 41.589844 45.996094 Z M 42.246094 46.417969 C 42.410156 46.769531 42.394531 46.910156 42.179688 47.007812 C 41.964844 47.101562 41.859375 47.046875 41.71875 46.757812 C 41.503906 46.316406 41.578125 46.109375 41.949219 46.105469 C 42.085938 46.105469 42.125 46.144531 42.246094 46.417969 Z M 42.246094 46.417969 "/>
<path style=" stroke:none;fill-rule:nonzero;fill:rgb(0%,0%,0%);fill-opacity:1;" d="M 40.101562 46.5 C 40.03125 46.523438 39.929688 46.617188 39.871094 46.695312 C 39.769531 46.824219 39.742188 46.832031 39.589844 46.773438 C 39.386719 46.695312 39.160156 46.746094 39.015625 46.902344 C 38.941406 46.984375 38.898438 47 38.867188 46.953125 C 38.839844 46.902344 38.644531 46.921875 38.578125 46.976562 C 38.566406 46.984375 38.648438 47.296875 38.757812 47.664062 C 38.863281 48.03125 38.953125 48.335938 38.953125 48.347656 C 38.953125 48.375 39.183594 48.296875 39.207031 48.257812 C 39.222656 48.234375 39.171875 48.015625 39.097656 47.765625 C 38.953125 47.242188 38.976562 47.097656 39.234375 47.039062 C 39.480469 46.984375 39.550781 47.070312 39.710938 47.613281 C 39.847656 48.054688 39.871094 48.09375 39.980469 48.054688 C 40.050781 48.035156 40.113281 48.007812 40.121094 48.003906 C 40.132812 47.992188 40.078125 47.777344 40.003906 47.515625 C 39.859375 47.007812 39.875 46.871094 40.09375 46.789062 C 40.335938 46.699219 40.4375 46.796875 40.589844 47.300781 C 40.730469 47.757812 40.808594 47.859375 40.960938 47.757812 C 41.011719 47.726562 40.992188 47.605469 40.894531 47.261719 C 40.742188 46.726562 40.667969 46.585938 40.488281 46.507812 C 40.332031 46.433594 40.261719 46.433594 40.101562 46.5 Z M 40.101562 46.5 "/>
<path style=" stroke:none;fill-rule:nonzero;fill:rgb(0%,0%,0%);fill-opacity:1;" d="M 37.160156 46.621094 C 36.875 46.675781 36.625 46.734375 36.621094 46.738281 C 36.609375 46.75 36.6875 47.1875 36.785156 47.71875 C 36.917969 48.429688 36.984375 48.683594 37.046875 48.683594 C 37.09375 48.683594 37.394531 48.632812 37.734375 48.574219 C 38.234375 48.484375 38.335938 48.449219 38.335938 48.367188 C 38.335938 48.207031 38.269531 48.195312 37.800781 48.285156 C 37.226562 48.398438 37.226562 48.398438 37.183594 48.183594 C 37.160156 48.085938 37.132812 47.957031 37.121094 47.90625 C 37.097656 47.832031 37.160156 47.800781 37.417969 47.75 C 37.996094 47.628906 37.996094 47.628906 37.996094 47.492188 L 37.996094 47.363281 L 37.59375 47.441406 C 37.367188 47.488281 37.15625 47.523438 37.121094 47.523438 C 37.03125 47.523438 36.925781 46.953125 37.007812 46.925781 C 37.042969 46.914062 37.234375 46.875 37.4375 46.84375 C 37.953125 46.75 37.996094 46.734375 37.996094 46.609375 C 37.996094 46.472656 37.878906 46.472656 37.160156 46.621094 Z M 37.160156 46.621094 "/>
<path style=" stroke:none;fill-rule:nonzero;fill:rgb(0%,0%,0%);fill-opacity:1;" d="M 32.769531 47.324219 C 32.769531 47.4375 32.796875 47.464844 32.910156 47.464844 C 33.023438 47.464844 33.050781 47.4375 33.050781 47.324219 C 33.050781 47.210938 33.023438 47.179688 32.910156 47.179688 C 32.796875 47.179688 32.769531 47.210938 32.769531 47.324219 Z M 32.769531 47.324219 "/>
<path style=" stroke:none;fill-rule:nonzero;fill:rgb(0%,0%,0%);fill-opacity:1;" d="M 26.082031 47.363281 C 26.082031 47.402344 26.226562 47.859375 26.402344 48.382812 C 26.710938 49.289062 26.734375 49.335938 26.875 49.335938 C 27.015625 49.335938 27.042969 49.289062 27.234375 48.75 C 27.351562 48.433594 27.515625 47.984375 27.605469 47.757812 L 27.761719 47.347656 L 27.582031 47.363281 C 27.414062 47.378906 27.402344 47.398438 27.144531 48.144531 L 26.878906 48.910156 L 26.632812 48.117188 C 26.394531 47.375 26.375 47.324219 26.234375 47.304688 C 26.136719 47.296875 26.082031 47.3125 26.082031 47.363281 Z M 26.082031 47.363281 "/>
<path style=" stroke:none;fill-rule:nonzero;fill:rgb(0%,0%,0%);fill-opacity:1;" d="M 33.839844 47.789062 C 33.628906 47.976562 33.570312 48.28125 33.667969 48.644531 C 33.78125 49.078125 34.226562 49.226562 34.691406 48.988281 C 34.902344 48.882812 34.910156 48.863281 34.832031 48.777344 C 34.761719 48.707031 34.714844 48.707031 34.597656 48.757812 C 34.394531 48.851562 34.140625 48.839844 34.039062 48.734375 C 33.855469 48.550781 33.933594 48.5 34.433594 48.457031 L 34.917969 48.417969 L 34.878906 48.21875 C 34.804688 47.808594 34.609375 47.632812 34.238281 47.632812 C 34.070312 47.632812 33.960938 47.675781 33.839844 47.789062 Z M 34.445312 47.953125 C 34.511719 47.996094 34.570312 48.085938 34.570312 48.148438 C 34.570312 48.246094 34.53125 48.257812 34.230469 48.257812 C 33.859375 48.257812 33.820312 48.210938 34.035156 48.003906 C 34.191406 47.839844 34.269531 47.828125 34.445312 47.953125 Z M 34.445312 47.953125 "/>
<path style=" stroke:none;fill-rule:nonzero;fill:rgb(0%,0%,0%);fill-opacity:1;" d="M 32.078125 47.828125 C 32.027344 47.878906 31.972656 47.890625 31.921875 47.855469 C 31.875 47.828125 31.734375 47.804688 31.605469 47.804688 C 31.414062 47.804688 31.347656 47.832031 31.253906 47.957031 C 31.144531 48.09375 31.132812 48.171875 31.152344 48.546875 C 31.175781 49.046875 31.265625 49.199219 31.574219 49.253906 C 31.726562 49.28125 31.804688 49.265625 31.933594 49.167969 L 32.097656 49.046875 L 32.097656 49.214844 C 32.097656 49.304688 32.054688 49.425781 32.007812 49.46875 C 31.90625 49.578125 31.585938 49.589844 31.488281 49.492188 C 31.4375 49.4375 31.398438 49.441406 31.332031 49.515625 C 31.214844 49.632812 31.265625 49.707031 31.5 49.789062 C 31.742188 49.867188 32.101562 49.78125 32.265625 49.605469 C 32.359375 49.503906 32.375 49.40625 32.375 49 C 32.375 48.734375 32.359375 48.34375 32.335938 48.128906 C 32.304688 47.738281 32.242188 47.664062 32.078125 47.828125 Z M 31.964844 48.097656 C 32.078125 48.242188 32.101562 48.734375 32.007812 48.871094 C 31.894531 49.039062 31.625 49.039062 31.511719 48.871094 C 31.394531 48.699219 31.394531 48.269531 31.515625 48.132812 C 31.617188 48.015625 31.886719 47.996094 31.964844 48.097656 Z M 31.964844 48.097656 "/>
<path style=" stroke:none;fill-rule:nonzero;fill:rgb(0%,0%,0%);fill-opacity:1;" d="M 32.855469 48.46875 C 32.878906 48.871094 32.898438 49.199219 32.90625 49.203125 C 32.90625 49.210938 32.972656 49.199219 33.050781 49.179688 L 33.191406 49.160156 L 33.152344 48.664062 C 33.136719 48.394531 33.113281 48.078125 33.113281 47.957031 C 33.109375 47.769531 33.089844 47.75 32.960938 47.75 L 32.816406 47.75 Z M 32.855469 48.46875 "/>
<path style=" stroke:none;fill-rule:nonzero;fill:rgb(0%,0%,0%);fill-opacity:1;" d="M 29.671875 47.96875 C 29.550781 48.070312 29.539062 48.121094 29.539062 48.570312 C 29.539062 49.039062 29.542969 49.066406 29.695312 49.199219 C 29.882812 49.355469 30.15625 49.378906 30.34375 49.242188 C 30.460938 49.164062 30.464844 49.164062 30.464844 49.277344 C 30.464844 49.589844 30.195312 49.742188 29.910156 49.589844 C 29.761719 49.515625 29.742188 49.515625 29.679688 49.589844 C 29.511719 49.792969 29.964844 49.96875 30.359375 49.847656 C 30.71875 49.742188 30.753906 49.640625 30.734375 48.707031 L 30.71875 47.890625 L 30.566406 47.871094 C 30.476562 47.859375 30.410156 47.882812 30.410156 47.917969 C 30.410156 47.957031 30.375 47.964844 30.300781 47.917969 C 30.128906 47.828125 29.8125 47.851562 29.671875 47.96875 Z M 30.320312 48.160156 C 30.449219 48.257812 30.503906 48.75 30.414062 48.933594 C 30.371094 49.015625 30.296875 49.050781 30.164062 49.050781 C 29.921875 49.050781 29.835938 48.941406 29.800781 48.601562 C 29.785156 48.375 29.796875 48.308594 29.898438 48.207031 C 30.03125 48.070312 30.171875 48.054688 30.320312 48.160156 Z M 30.320312 48.160156 "/>
<path style=" stroke:none;fill-rule:nonzero;fill:rgb(0%,0%,0%);fill-opacity:1;" d="M 28.09375 48.082031 C 27.925781 48.234375 27.90625 48.269531 27.90625 48.613281 C 27.90625 48.902344 27.9375 49.023438 28.027344 49.148438 C 28.222656 49.414062 28.746094 49.464844 29.03125 49.242188 C 29.144531 49.160156 29.144531 49.152344 29.039062 49.078125 C 28.960938 49.023438 28.902344 49.015625 28.824219 49.054688 C 28.769531 49.089844 28.628906 49.109375 28.507812 49.097656 C 28.359375 49.085938 28.285156 49.046875 28.234375 48.9375 L 28.167969 48.796875 L 28.667969 48.777344 C 29.230469 48.761719 29.222656 48.761719 29.117188 48.359375 C 28.988281 47.90625 28.449219 47.757812 28.09375 48.082031 Z M 28.710938 48.234375 C 28.78125 48.28125 28.835938 48.371094 28.835938 48.433594 C 28.835938 48.53125 28.796875 48.539062 28.5 48.539062 C 28.128906 48.539062 28.089844 48.496094 28.300781 48.285156 C 28.460938 48.121094 28.539062 48.109375 28.710938 48.234375 Z M 28.710938 48.234375 "/>
</g>
</svg>
